<svg xmlns="http://www.w3.org/2000/svg" width="566.36" height="384.81"><path fill="#FFF" filter="drop-shadow(0 0 20px rgba(0,0,0,.7))" d="M43.18 43.64h476.75v297.03H43.18z"/><path fill="#4EB5E1" d="M63.82 272.68h4.67v10.11h-4.67z"/><path d="M59.15 313.11h443.22v10.11H59.15zM126.8 70.51h19.44v20.22H126.8zM358.52 70.51h19.44v20.22h-19.44zM339.86 151.38v10.11h-38.88V90.73h-9.33V80.62h28.77v70.76zM59.15 100.83v80.87h19.44v-20.21h28.77v-60.66H59.15zm28.77 50.55h-9.33v-40.44h9.33v40.44zM165.68 151.38v10.11H126.8v-50.55h-9.33v-10.11h28.77v50.55zM175.01 100.83v80.87h19.44v-20.21h28.77v-60.66h-48.21zm28.77 50.55h-9.33v-40.44h9.33v40.44zM233.33 100.83v60.66h48.21v-10.11h-28.77v-20.22h28.77v-30.33h-48.21zm28.77 20.22h-9.33v-10.11h9.33v10.11zM397.4 151.38v10.11h-38.88v-50.55h-9.33v-10.11h28.77v50.55zM454.94 100.83v60.66H435.5v-50.55h-9.33v50.55h-19.44v-60.66zM465.05 100.83v60.66h37.32v-10.11h-17.88v-20.22h17.88v-30.33h-37.32zm28.77 20.22h-9.33v-10.11h9.33v10.11z"/><text transform="translate(59.15 210.471)" font-family="monospace" font-size="9.331">Welcome to the mindandbrain/pipeline!</text><text transform="translate(59.15 220.58)" font-family="monospace" font-size="9.331">You are using version 1.0.0rc2</text><text transform="translate(59.15 240.798)" font-family="monospace" font-size="9.331">Please report any problems or leave suggestions at</text><text transform="translate(59.15 250.905)" font-family="monospace" font-size="9.331">https://github.com/mindandbrain/pipeline/issues</text><text transform="translate(59.15 271.123)" font-family="monospace" font-size="9.331">Specify working directory</text><text transform="translate(59.15 281.232)" font-family="monospace" font-size="9.331">[</text><text transform="translate(63.98 281.232)" fill="#FFF" font-family="monospace" font-size="9.331">]</text><text transform="translate(59.15 291.34)" font-family="monospace" font-size="9.331">data/</text><text transform="translate(59.15 301.449)" font-family="monospace" font-size="9.331">scratch/</text><text transform="translate(59.15 321.666)" fill="#FFF" font-family="monospace" font-size="9.331">[</text><path fill="#FFF" d="M68.13 318.39h-2.41v1.23l-1.56-1.56 1.56-1.56v1.22h1.73v-3.25h.68z"/><text transform="translate(68.81 321.666)" fill="#FFF" font-family="monospace" font-size="9.331">] Ok [</text><path fill="#FFF" d="M102.85 318.06l1.55-1.56v1.22h2.74v.67h-2.74v1.23zM115.32 319.62v-1.23h-2.74v-.67h2.74v-1.22l1.56 1.56z"/><g fill="#FFF" font-family="monospace" font-size="9.331"><text transform="translate(257.172 321.666)">l</text><text transform="translate(252.342 321.666)">e</text><text transform="translate(247.512 321.666)">c</text><text transform="translate(242.682 321.666)">n</text><text transform="translate(237.853 321.666)">a</text><text transform="translate(233.023 321.666)">C</text><text transform="translate(223.363 321.666)">]</text><text transform="translate(218.534 321.666)">c</text><text transform="translate(213.704 321.666)">-</text><text transform="translate(208.874 321.666)">l</text><text transform="translate(204.043 321.666)">r</text><text transform="translate(199.214 321.666)">t</text><text transform="translate(194.384 321.666)">c</text><text transform="translate(189.554 321.666)">[</text><text transform="translate(175.065 321.666)">r</text><text transform="translate(170.235 321.666)">o</text><text transform="translate(165.406 321.666)">s</text><text transform="translate(160.576 321.666)">r</text><text transform="translate(155.746 321.666)">u</text><text transform="translate(150.917 321.666)">c</text><text transform="translate(141.256 321.666)">e</text><text transform="translate(136.427 321.666)">v</text><text transform="translate(131.597 321.666)">o</text><text transform="translate(126.767 321.666)">M</text><text transform="translate(117.108 321.666)">]</text></g></svg>